# xmcd CD database file
#
# Track frame offsets:
#	150
#	16440
#	34525
#	48637
#	68515
#	83662
#	101945
#	122295
#	137307
#	152500
#
# Disc length: 2319 seconds
#
# Revision: 0
# Processed by: cddbd v1.5.1PL0 Copyright (c) Steve Scherf et al.
# Submitted via: CDex 1.51
#
DISCID=6f090d0a
DTITLE=鈴木康博 and 細坪基佳 - 四月になれば僕らは
DYEAR=1900
DGENRE=JPop
TTITLE0=白い冬
TTITLE1=もの憂げな10月
TTITLE2=ロンド
TTITLE3=Gloomy Shade
TTITLE4=流れゆく河のほとりで
TTITLE5=Going Crazy
TTITLE6=さよなら
TTITLE7=群集の中で
TTITLE8=でももう花はいらない
TTITLE9=Simple Song
EXTD=
EXTT0=
EXTT1=
EXTT2=
EXTT3=
EXTT4=
EXTT5=
EXTT6=
EXTT7=
EXTT8=
EXTT9=
PLAYORDER=
